<mxfile host="app.diagrams.net" agent="Mozilla/5.0 (Macintosh; Intel Mac OS X 10_15_7) AppleWebKit/605.1.15 (KHTML, like Gecko) Version/17.6 Safari/605.1.15" version="26.0.4" pages="10">
  <diagram name="App" id="_k3KnKrby3xeF2LrFNci">
    <mxGraphModel dx="2074" dy="1187" grid="1" gridSize="10" guides="1" tooltips="1" connect="1" arrows="1" fold="1" page="1" pageScale="1" pageWidth="827" pageHeight="1169" math="0" shadow="0">
      <root>
        <mxCell id="0" />
        <mxCell id="1" parent="0" />
        <mxCell id="KVK98yNLvP8-c9w2yzk1-1" value="" style="rounded=0;whiteSpace=wrap;html=1;" vertex="1" parent="1">
          <mxGeometry x="160" y="180" width="560" height="600" as="geometry" />
        </mxCell>
        <mxCell id="KVK98yNLvP8-c9w2yzk1-2" value="Header" style="rounded=0;whiteSpace=wrap;html=1;" vertex="1" parent="1">
          <mxGeometry x="220" y="250" width="440" height="140" as="geometry" />
        </mxCell>
        <mxCell id="lGjGTUvFhd74WrR9Q3Kb-1" value="Search Container" style="rounded=0;whiteSpace=wrap;html=1;" vertex="1" parent="1">
          <mxGeometry x="220" y="450" width="440" height="270" as="geometry" />
        </mxCell>
        <mxCell id="lGjGTUvFhd74WrR9Q3Kb-2" value="App" style="text;html=1;align=center;verticalAlign=middle;whiteSpace=wrap;rounded=0;" vertex="1" parent="1">
          <mxGeometry x="384" y="70" width="60" height="30" as="geometry" />
        </mxCell>
      </root>
    </mxGraphModel>
  </diagram>
  <diagram id="zWxcoBVrnKCxc1dVJAN2" name="Header">
    <mxGraphModel dx="2074" dy="1187" grid="1" gridSize="10" guides="1" tooltips="1" connect="1" arrows="1" fold="1" page="1" pageScale="1" pageWidth="827" pageHeight="1169" math="0" shadow="0">
      <root>
        <mxCell id="0" />
        <mxCell id="1" parent="0" />
        <mxCell id="NaP6-6-uRpGCFKKEvWVo-2" value="" style="rounded=0;whiteSpace=wrap;html=1;" vertex="1" parent="1">
          <mxGeometry x="160" y="180" width="580" height="250" as="geometry" />
        </mxCell>
        <mxCell id="NaP6-6-uRpGCFKKEvWVo-3" value="" style="rounded=0;whiteSpace=wrap;html=1;" vertex="1" parent="1">
          <mxGeometry x="272.5" y="220" width="355" height="60" as="geometry" />
        </mxCell>
        <mxCell id="NaP6-6-uRpGCFKKEvWVo-4" value="Header" style="text;html=1;align=center;verticalAlign=middle;whiteSpace=wrap;rounded=0;labelBackgroundColor=none;labelBorderColor=none;" vertex="1" parent="1">
          <mxGeometry x="350" y="80" width="180" height="80" as="geometry" />
        </mxCell>
        <mxCell id="NaP6-6-uRpGCFKKEvWVo-5" value="Title" style="text;html=1;align=center;verticalAlign=middle;whiteSpace=wrap;rounded=0;" vertex="1" parent="1">
          <mxGeometry x="420" y="235" width="60" height="30" as="geometry" />
        </mxCell>
        <mxCell id="NaP6-6-uRpGCFKKEvWVo-6" value="Description" style="rounded=0;whiteSpace=wrap;html=1;" vertex="1" parent="1">
          <mxGeometry x="272.5" y="300" width="357.5" height="110" as="geometry" />
        </mxCell>
      </root>
    </mxGraphModel>
  </diagram>
  <diagram id="qy4E4UTxy_470tVkUIjl" name="Search Container">
    <mxGraphModel dx="2074" dy="1187" grid="1" gridSize="10" guides="1" tooltips="1" connect="1" arrows="1" fold="1" page="1" pageScale="1" pageWidth="827" pageHeight="1169" math="0" shadow="0">
      <root>
        <mxCell id="0" />
        <mxCell id="1" parent="0" />
        <mxCell id="MER9ls1ZH6EALq-ruYOz-1" value="" style="rounded=0;whiteSpace=wrap;html=1;" vertex="1" parent="1">
          <mxGeometry x="141" y="290" width="546" height="620" as="geometry" />
        </mxCell>
        <mxCell id="MER9ls1ZH6EALq-ruYOz-2" value="Search Container" style="text;html=1;align=center;verticalAlign=middle;whiteSpace=wrap;rounded=0;" vertex="1" parent="1">
          <mxGeometry x="360" y="190" width="126" height="30" as="geometry" />
        </mxCell>
        <mxCell id="MER9ls1ZH6EALq-ruYOz-3" value="Search Bar" style="rounded=0;whiteSpace=wrap;html=1;" vertex="1" parent="1">
          <mxGeometry x="214" y="380" width="400" height="160" as="geometry" />
        </mxCell>
        <mxCell id="MER9ls1ZH6EALq-ruYOz-4" value="Results Container" style="rounded=0;whiteSpace=wrap;html=1;" vertex="1" parent="1">
          <mxGeometry x="214" y="620" width="396" height="240" as="geometry" />
        </mxCell>
      </root>
    </mxGraphModel>
  </diagram>
  <diagram id="ZYreDiC9vKm-pgMcwzQ_" name="Search Bar">
    <mxGraphModel dx="2074" dy="1187" grid="1" gridSize="10" guides="1" tooltips="1" connect="1" arrows="1" fold="1" page="1" pageScale="1" pageWidth="827" pageHeight="1169" math="0" shadow="0">
      <root>
        <mxCell id="0" />
        <mxCell id="1" parent="0" />
        <mxCell id="9s8Iwb9moYy5gk8UnAoX-1" value="" style="rounded=0;whiteSpace=wrap;html=1;" vertex="1" parent="1">
          <mxGeometry x="59" y="450" width="710" height="360" as="geometry" />
        </mxCell>
        <mxCell id="9s8Iwb9moYy5gk8UnAoX-5" value="" style="rounded=0;whiteSpace=wrap;html=1;" vertex="1" parent="1">
          <mxGeometry x="94" y="527.5" width="640" height="225" as="geometry" />
        </mxCell>
        <mxCell id="9s8Iwb9moYy5gk8UnAoX-2" value="Search Bar" style="text;html=1;align=center;verticalAlign=middle;whiteSpace=wrap;rounded=0;" vertex="1" parent="1">
          <mxGeometry x="350" y="360" width="90" height="30" as="geometry" />
        </mxCell>
        <mxCell id="9s8Iwb9moYy5gk8UnAoX-3" value="Text Input" style="rounded=0;whiteSpace=wrap;html=1;" vertex="1" parent="1">
          <mxGeometry x="130" y="610" width="380" height="60" as="geometry" />
        </mxCell>
        <mxCell id="9s8Iwb9moYy5gk8UnAoX-4" value="Submit Button" style="rounded=0;whiteSpace=wrap;html=1;" vertex="1" parent="1">
          <mxGeometry x="570" y="610" width="120" height="60" as="geometry" />
        </mxCell>
        <mxCell id="9s8Iwb9moYy5gk8UnAoX-6" value="Form" style="text;html=1;align=center;verticalAlign=middle;whiteSpace=wrap;rounded=0;" vertex="1" parent="1">
          <mxGeometry x="384" y="560" width="60" height="30" as="geometry" />
        </mxCell>
      </root>
    </mxGraphModel>
  </diagram>
  <diagram id="KcKj2KqaDVczFkuwnrGX" name="Results Container">
    <mxGraphModel dx="2074" dy="1187" grid="1" gridSize="10" guides="1" tooltips="1" connect="1" arrows="1" fold="1" page="1" pageScale="1" pageWidth="827" pageHeight="1169" math="0" shadow="0">
      <root>
        <mxCell id="0" />
        <mxCell id="1" parent="0" />
        <mxCell id="ERGlR-w-7FdJ0rye63xj-1" value="" style="rounded=0;whiteSpace=wrap;html=1;" vertex="1" parent="1">
          <mxGeometry x="94" y="320" width="640" height="640" as="geometry" />
        </mxCell>
        <mxCell id="OK-OtkF7HLMhdgL5Gupk-1" value="" style="rounded=0;whiteSpace=wrap;html=1;" vertex="1" parent="1">
          <mxGeometry x="139" y="360" width="550" height="470" as="geometry" />
        </mxCell>
        <mxCell id="OK-OtkF7HLMhdgL5Gupk-2" value="Results" style="text;html=1;align=center;verticalAlign=middle;whiteSpace=wrap;rounded=0;" vertex="1" parent="1">
          <mxGeometry x="380" y="580" width="60" height="30" as="geometry" />
        </mxCell>
        <mxCell id="OK-OtkF7HLMhdgL5Gupk-3" value="" style="rounded=0;whiteSpace=wrap;html=1;" vertex="1" parent="1">
          <mxGeometry x="138" y="860" width="551" height="60" as="geometry" />
        </mxCell>
        <mxCell id="OK-OtkF7HLMhdgL5Gupk-4" value="Pages" style="text;html=1;align=center;verticalAlign=middle;whiteSpace=wrap;rounded=0;" vertex="1" parent="1">
          <mxGeometry x="380" y="875" width="60" height="30" as="geometry" />
        </mxCell>
        <mxCell id="8LArZzVkpc0KsD_VUwyB-1" value="Results Container" style="text;html=1;align=center;verticalAlign=middle;whiteSpace=wrap;rounded=0;" vertex="1" parent="1">
          <mxGeometry x="300" y="240" width="220" height="30" as="geometry" />
        </mxCell>
      </root>
    </mxGraphModel>
  </diagram>
  <diagram id="I-Y37OQmEkCIWh5wzpxp" name="Results">
    <mxGraphModel dx="2074" dy="1187" grid="1" gridSize="10" guides="1" tooltips="1" connect="1" arrows="1" fold="1" page="1" pageScale="1" pageWidth="827" pageHeight="1169" math="0" shadow="0">
      <root>
        <mxCell id="0" />
        <mxCell id="1" parent="0" />
        <mxCell id="r2bsUJVPgUkRShZ3qCBC-1" value="" style="rounded=0;whiteSpace=wrap;html=1;" vertex="1" parent="1">
          <mxGeometry x="94" y="320" width="640" height="560" as="geometry" />
        </mxCell>
        <mxCell id="9tBZL-ItP7qtYDc0Wnfx-1" value="Results" style="text;html=1;align=center;verticalAlign=middle;whiteSpace=wrap;rounded=0;" vertex="1" parent="1">
          <mxGeometry x="384" y="240" width="60" height="30" as="geometry" />
        </mxCell>
        <mxCell id="qhnYOy24CRFn3p6-6Sa7-1" value="Card" style="rounded=0;whiteSpace=wrap;html=1;" vertex="1" parent="1">
          <mxGeometry x="114" y="360" width="120" height="140" as="geometry" />
        </mxCell>
        <mxCell id="qhnYOy24CRFn3p6-6Sa7-2" value="Card" style="rounded=0;whiteSpace=wrap;html=1;" vertex="1" parent="1">
          <mxGeometry x="274" y="360" width="120" height="140" as="geometry" />
        </mxCell>
        <mxCell id="qhnYOy24CRFn3p6-6Sa7-3" value="Card" style="rounded=0;whiteSpace=wrap;html=1;" vertex="1" parent="1">
          <mxGeometry x="434" y="360" width="120" height="140" as="geometry" />
        </mxCell>
        <mxCell id="qhnYOy24CRFn3p6-6Sa7-4" value="Card" style="rounded=0;whiteSpace=wrap;html=1;" vertex="1" parent="1">
          <mxGeometry x="594" y="360" width="120" height="140" as="geometry" />
        </mxCell>
        <mxCell id="qhnYOy24CRFn3p6-6Sa7-5" value="Card" style="rounded=0;whiteSpace=wrap;html=1;" vertex="1" parent="1">
          <mxGeometry x="114" y="530" width="120" height="140" as="geometry" />
        </mxCell>
        <mxCell id="qhnYOy24CRFn3p6-6Sa7-6" value="Card" style="rounded=0;whiteSpace=wrap;html=1;" vertex="1" parent="1">
          <mxGeometry x="114" y="700" width="120" height="140" as="geometry" />
        </mxCell>
        <mxCell id="qhnYOy24CRFn3p6-6Sa7-7" value="Card" style="rounded=0;whiteSpace=wrap;html=1;" vertex="1" parent="1">
          <mxGeometry x="274" y="530" width="120" height="140" as="geometry" />
        </mxCell>
        <mxCell id="qhnYOy24CRFn3p6-6Sa7-8" value="Card" style="rounded=0;whiteSpace=wrap;html=1;" vertex="1" parent="1">
          <mxGeometry x="434" y="530" width="120" height="140" as="geometry" />
        </mxCell>
        <mxCell id="qhnYOy24CRFn3p6-6Sa7-9" value="Card" style="rounded=0;whiteSpace=wrap;html=1;" vertex="1" parent="1">
          <mxGeometry x="594" y="530" width="120" height="140" as="geometry" />
        </mxCell>
        <mxCell id="qhnYOy24CRFn3p6-6Sa7-10" value="Card" style="rounded=0;whiteSpace=wrap;html=1;" vertex="1" parent="1">
          <mxGeometry x="274" y="700" width="120" height="140" as="geometry" />
        </mxCell>
        <mxCell id="qhnYOy24CRFn3p6-6Sa7-11" value="Card" style="rounded=0;whiteSpace=wrap;html=1;" vertex="1" parent="1">
          <mxGeometry x="434" y="700" width="120" height="140" as="geometry" />
        </mxCell>
        <mxCell id="qhnYOy24CRFn3p6-6Sa7-12" value="Card" style="rounded=0;whiteSpace=wrap;html=1;" vertex="1" parent="1">
          <mxGeometry x="594" y="700" width="120" height="140" as="geometry" />
        </mxCell>
      </root>
    </mxGraphModel>
  </diagram>
  <diagram id="eS8JU_cSiNmhMtbr7BKf" name="Card">
    <mxGraphModel dx="2074" dy="1187" grid="1" gridSize="10" guides="1" tooltips="1" connect="1" arrows="1" fold="1" page="1" pageScale="1" pageWidth="827" pageHeight="1169" math="0" shadow="0">
      <root>
        <mxCell id="0" />
        <mxCell id="1" parent="0" />
        <mxCell id="EEy5nRTieNeDawblvV9B-1" value="" style="rounded=0;whiteSpace=wrap;html=1;" vertex="1" parent="1">
          <mxGeometry x="194" y="365" width="440" height="440" as="geometry" />
        </mxCell>
        <mxCell id="EEy5nRTieNeDawblvV9B-2" value="Reversible" style="rounded=0;whiteSpace=wrap;html=1;" vertex="1" parent="1">
          <mxGeometry x="239" y="390" width="350" height="280" as="geometry" />
        </mxCell>
        <mxCell id="EEy5nRTieNeDawblvV9B-3" value="Title&lt;div&gt;Author&lt;/div&gt;" style="rounded=0;whiteSpace=wrap;html=1;" vertex="1" parent="1">
          <mxGeometry x="239" y="690" width="351" height="60" as="geometry" />
        </mxCell>
        <mxCell id="Ia2N2LK0u_s6n-EQtACq-1" value="Card" style="text;html=1;align=center;verticalAlign=middle;whiteSpace=wrap;rounded=0;" vertex="1" parent="1">
          <mxGeometry x="384" y="260" width="60" height="30" as="geometry" />
        </mxCell>
        <mxCell id="QMjvH7z3AQK2S6_YutuH-1" value="Show More Button" style="rounded=0;whiteSpace=wrap;html=1;" vertex="1" parent="1">
          <mxGeometry x="240" y="760" width="350" height="30" as="geometry" />
        </mxCell>
      </root>
    </mxGraphModel>
  </diagram>
  <diagram id="1LNCjXBwuQwfWHYxOGyn" name="Reversible">
    <mxGraphModel dx="2074" dy="1187" grid="1" gridSize="10" guides="1" tooltips="1" connect="1" arrows="1" fold="1" page="1" pageScale="1" pageWidth="827" pageHeight="1169" math="0" shadow="0">
      <root>
        <mxCell id="0" />
        <mxCell id="1" parent="0" />
        <mxCell id="RPKP0134gUoRaoajlWXG-1" value="Reversible (on Display)" style="text;html=1;align=center;verticalAlign=middle;whiteSpace=wrap;rounded=0;" vertex="1" parent="1">
          <mxGeometry x="134" y="300" width="160" height="30" as="geometry" />
        </mxCell>
        <mxCell id="RPKP0134gUoRaoajlWXG-2" value="Reversible (on Hover)" style="text;html=1;align=center;verticalAlign=middle;whiteSpace=wrap;rounded=0;" vertex="1" parent="1">
          <mxGeometry x="530" y="300" width="160" height="30" as="geometry" />
        </mxCell>
        <mxCell id="RPKP0134gUoRaoajlWXG-3" value="Image" style="rounded=0;whiteSpace=wrap;html=1;" vertex="1" parent="1">
          <mxGeometry x="39" y="360" width="350" height="370" as="geometry" />
        </mxCell>
        <mxCell id="RPKP0134gUoRaoajlWXG-4" value="Description" style="rounded=0;whiteSpace=wrap;html=1;" vertex="1" parent="1">
          <mxGeometry x="439" y="360" width="350" height="370" as="geometry" />
        </mxCell>
      </root>
    </mxGraphModel>
  </diagram>
  <diagram id="p9oBU0Ln_YNZT-P90I2f" name="Full Details">
    <mxGraphModel dx="2074" dy="1187" grid="1" gridSize="10" guides="1" tooltips="1" connect="1" arrows="1" fold="1" page="1" pageScale="1" pageWidth="827" pageHeight="1169" math="0" shadow="0">
      <root>
        <mxCell id="0" />
        <mxCell id="1" parent="0" />
        <mxCell id="YreqKwqEiQXmwa5VkF2E-1" value="Full Details" style="text;html=1;align=center;verticalAlign=middle;whiteSpace=wrap;rounded=0;" vertex="1" parent="1">
          <mxGeometry x="299" y="380" width="230" height="30" as="geometry" />
        </mxCell>
        <mxCell id="YreqKwqEiQXmwa5VkF2E-2" value="" style="rounded=0;whiteSpace=wrap;html=1;" vertex="1" parent="1">
          <mxGeometry x="94" y="440" width="640" height="650" as="geometry" />
        </mxCell>
        <mxCell id="YreqKwqEiQXmwa5VkF2E-3" value="Image" style="rounded=0;whiteSpace=wrap;html=1;" vertex="1" parent="1">
          <mxGeometry x="490" y="475" width="209" height="245" as="geometry" />
        </mxCell>
        <mxCell id="YreqKwqEiQXmwa5VkF2E-4" value="Title" style="rounded=0;whiteSpace=wrap;html=1;" vertex="1" parent="1">
          <mxGeometry x="130" y="475" width="320" height="75" as="geometry" />
        </mxCell>
        <mxCell id="YreqKwqEiQXmwa5VkF2E-5" value="Subtitle || Empty Space" style="rounded=0;whiteSpace=wrap;html=1;" vertex="1" parent="1">
          <mxGeometry x="130" y="570" width="320" height="60" as="geometry" />
        </mxCell>
        <mxCell id="YreqKwqEiQXmwa5VkF2E-6" value="Author &amp;amp; Date" style="rounded=0;whiteSpace=wrap;html=1;" vertex="1" parent="1">
          <mxGeometry x="130" y="660" width="320" height="60" as="geometry" />
        </mxCell>
        <mxCell id="YreqKwqEiQXmwa5VkF2E-7" value="" style="rounded=0;whiteSpace=wrap;html=1;" vertex="1" parent="1">
          <mxGeometry x="130" y="770" width="570" height="260" as="geometry" />
        </mxCell>
        <mxCell id="YreqKwqEiQXmwa5VkF2E-8" value="About" style="text;html=1;align=center;verticalAlign=middle;whiteSpace=wrap;rounded=0;" vertex="1" parent="1">
          <mxGeometry x="384" y="885" width="60" height="30" as="geometry" />
        </mxCell>
      </root>
    </mxGraphModel>
  </diagram>
  <diagram id="QsuS2UVyuH3oTtH4ST2X" name="About">
    <mxGraphModel dx="2074" dy="1187" grid="1" gridSize="10" guides="1" tooltips="1" connect="1" arrows="1" fold="1" page="1" pageScale="1" pageWidth="827" pageHeight="1169" math="0" shadow="0">
      <root>
        <mxCell id="0" />
        <mxCell id="1" parent="0" />
        <mxCell id="Pt-plzyOL9J6yQTjJCPc-1" value="" style="rounded=0;whiteSpace=wrap;html=1;" vertex="1" parent="1">
          <mxGeometry x="104" y="280" width="620" height="610" as="geometry" />
        </mxCell>
        <mxCell id="Pt-plzyOL9J6yQTjJCPc-2" value="About" style="text;html=1;align=center;verticalAlign=middle;whiteSpace=wrap;rounded=0;" vertex="1" parent="1">
          <mxGeometry x="384" y="200" width="60" height="30" as="geometry" />
        </mxCell>
        <mxCell id="Pt-plzyOL9J6yQTjJCPc-3" value="Heading" style="text;html=1;align=center;verticalAlign=middle;whiteSpace=wrap;rounded=0;" vertex="1" parent="1">
          <mxGeometry x="314" y="310" width="200" height="30" as="geometry" />
        </mxCell>
        <mxCell id="Pt-plzyOL9J6yQTjJCPc-4" value="" style="rounded=0;whiteSpace=wrap;html=1;" vertex="1" parent="1">
          <mxGeometry x="149" y="340" width="530" height="510" as="geometry" />
        </mxCell>
        <mxCell id="Pt-plzyOL9J6yQTjJCPc-12" value="" style="rounded=0;whiteSpace=wrap;html=1;" vertex="1" parent="1">
          <mxGeometry x="174" y="360" width="480" height="310" as="geometry" />
        </mxCell>
        <mxCell id="Pt-plzyOL9J6yQTjJCPc-5" value="ISBN" style="text;html=1;align=center;verticalAlign=middle;whiteSpace=wrap;rounded=0;" vertex="1" parent="1">
          <mxGeometry x="195" y="390" width="60" height="30" as="geometry" />
        </mxCell>
        <mxCell id="Pt-plzyOL9J6yQTjJCPc-7" value="Page Count" style="text;html=1;align=center;verticalAlign=middle;whiteSpace=wrap;rounded=0;" vertex="1" parent="1">
          <mxGeometry x="180" y="430" width="90" height="30" as="geometry" />
        </mxCell>
        <mxCell id="Pt-plzyOL9J6yQTjJCPc-8" value="Publish Date" style="text;html=1;align=center;verticalAlign=middle;whiteSpace=wrap;rounded=0;" vertex="1" parent="1">
          <mxGeometry x="149" y="470" width="150" height="30" as="geometry" />
        </mxCell>
        <mxCell id="Pt-plzyOL9J6yQTjJCPc-9" value="Publisher" style="text;html=1;align=center;verticalAlign=middle;whiteSpace=wrap;rounded=0;" vertex="1" parent="1">
          <mxGeometry x="194" y="510" width="60" height="30" as="geometry" />
        </mxCell>
        <mxCell id="Pt-plzyOL9J6yQTjJCPc-10" value="Language" style="text;html=1;align=center;verticalAlign=middle;whiteSpace=wrap;rounded=0;" vertex="1" parent="1">
          <mxGeometry x="194" y="554.5" width="60" height="30" as="geometry" />
        </mxCell>
        <mxCell id="Pt-plzyOL9J6yQTjJCPc-11" value="Author" style="text;html=1;align=center;verticalAlign=middle;whiteSpace=wrap;rounded=0;" vertex="1" parent="1">
          <mxGeometry x="194" y="600" width="60" height="30" as="geometry" />
        </mxCell>
        <mxCell id="Pt-plzyOL9J6yQTjJCPc-13" value="Description" style="rounded=0;whiteSpace=wrap;html=1;" vertex="1" parent="1">
          <mxGeometry x="176" y="700" width="476" height="110" as="geometry" />
        </mxCell>
      </root>
    </mxGraphModel>
  </diagram>
</mxfile>
